<?xml version="1.0"?>
<svg xmlns="http://www.w3.org/2000/svg" xmlns:xlink="http://www.w3.org/1999/xlink" version="1.1" id="Capa_1" x="0px" y="0px" viewBox="0 0 511.999 511.999" style="enable-background:new 0 0 511.999 511.999;" xml:space="preserve" width="512px" height="512px" class=""><g><g>
	<path style="fill:#5D336F" d="M432.547,504.499H84.76c-13.462,0-24.375-10.913-24.375-24.375V270.115h396.537v210.009   C456.922,493.586,446.009,504.499,432.547,504.499z" data-original="#4A5058" class="" data-old_color="#4A5058"/>
	<path style="fill:#5D336F" d="M465.026,197.758H65.479c-6.005,0-10.873,4.868-10.873,10.874v50.61   c0,6.005,4.868,10.874,10.873,10.874h399.548c6.005,0,10.874-4.868,10.874-10.874v-50.61   C475.9,202.626,471.031,197.758,465.026,197.758z" data-original="#4A5058" class="" data-old_color="#4A5058"/>
</g><g>
	<polygon style="fill:#9577A2" points="339.407,197.758 267.05,270.115 346.507,270.115 418.865,197.758  " data-original="#F1F1F1" class="" data-old_color="#F1F1F1"/>
	<polygon style="fill:#9577A2" points="149.524,197.758 77.166,270.115 156.624,270.115 228.982,197.758  " data-original="#F1F1F1" class="" data-old_color="#F1F1F1"/>
</g><path style="fill:#5D336F" d="M446.453,7.979L51.805,128.852c-5.742,1.759-8.971,7.839-7.212,13.581l14.821,48.391  c1.759,5.742,7.839,8.971,13.581,7.212L467.644,77.164c5.742-1.759,8.971-7.839,7.212-13.581l-14.821-48.391  C458.276,9.449,452.195,6.22,446.453,7.979z" data-original="#4A5058" class="" data-old_color="#4A5058"/><g>
	<polygon style="fill:#9577A2" points="326.342,44.766 278.347,135.142 354.321,111.872 402.316,21.497  " data-original="#F1F1F1" class="" data-old_color="#F1F1F1"/>
	<polygon style="fill:#9577A2" points="144.784,100.375 96.789,190.75 172.763,167.48 220.758,77.105  " data-original="#F1F1F1" class="" data-old_color="#F1F1F1"/>
</g><path style="fill:#754F85" d="M110.866,125.401H47.619c-6.362,0-11.52,5.158-11.52,11.52v121.675c0,6.362,5.158,11.52,11.52,11.52  h115.345c8.268,0,13.844-8.453,10.59-16.054l-52.098-121.675C119.641,128.149,115.476,125.401,110.866,125.401z" data-original="#BCBCBC" class="" data-old_color="#BCBCBC"/><g>
	<circle style="fill:#9577A2" cx="64.6" cy="153.9" r="7.274" data-original="#FFFFFF" class="active-path" data-old_color="#FFFFFF"/>
	<circle style="fill:#9577A2" cx="64.6" cy="241.61" r="7.274" data-original="#FFFFFF" class="active-path" data-old_color="#FFFFFF"/>
</g><path style="opacity: 0.2;fill:#310D41" d="M59.459,258.596V136.92c0-6.362,5.157-11.52,11.52-11.52h-23.36  c-6.362,0-11.52,5.158-11.52,11.52v121.675c0,6.362,5.157,11.52,11.52,11.52h23.359C64.616,270.115,59.459,264.958,59.459,258.596z" data-original="#000000" class="" data-old_color="opacity: 0.2#310D41"/><rect x="60.38" y="270.12" style="opacity: 0.2;fill:#310D41" width="396.54" height="27.501" data-original="#000000" class="" data-old_color="opacity: 0.2#310D41"/><g>
	<path style="fill:#9577A2" d="M312.422,394.807c-4.143,0-7.5-3.358-7.5-7.5v-59.004c0-4.142,3.357-7.5,7.5-7.5   c4.142,0,7.5,3.358,7.5,7.5v59.004C319.922,391.449,316.565,394.807,312.422,394.807z" data-original="#FFFFFF" class="active-path" data-old_color="#FFFFFF"/>
	<path style="fill:#9577A2" d="M204.885,453.812c-4.143,0-7.5-3.358-7.5-7.5v-59.005c0-4.142,3.357-7.5,7.5-7.5s7.5,3.358,7.5,7.5   v59.005C212.385,450.454,209.028,453.812,204.885,453.812z" data-original="#FFFFFF" class="active-path" data-old_color="#FFFFFF"/>
	<path style="fill:#9577A2" d="M419.959,453.812H97.348c-4.143,0-7.5-3.358-7.5-7.5s3.357-7.5,7.5-7.5h322.611   c4.143,0,7.5,3.358,7.5,7.5C427.459,450.454,424.102,453.812,419.959,453.812z" data-original="#FFFFFF" class="active-path" data-old_color="#FFFFFF"/>
	<path style="fill:#9577A2" d="M419.959,394.807H97.348c-4.143,0-7.5-3.358-7.5-7.5s3.357-7.5,7.5-7.5h322.611   c4.143,0,7.5,3.358,7.5,7.5C427.459,391.449,424.102,394.807,419.959,394.807z" data-original="#FFFFFF" class="active-path" data-old_color="#FFFFFF"/>
</g><path d="M456.922,397.732c-4.143,0-7.5,3.358-7.5,7.5v74.892c0,9.305-7.57,16.875-16.875,16.875H165.782c-4.143,0-7.5,3.358-7.5,7.5  s3.357,7.5,7.5,7.5h266.766c17.576,0,31.875-14.299,31.875-31.875v-74.892C464.422,401.09,461.065,397.732,456.922,397.732z   M465.026,190.258H154.393l-3.523-8.229l235.76-72.209c3.961-1.213,6.188-5.407,4.975-9.368c-1.212-3.961-5.408-6.187-9.367-4.975  l-12.8,3.92l38.045-71.639L448.65,15.15c1.778-0.546,3.669,0.458,4.214,2.237l14.821,48.392c0.355,1.162-0.002,2.108-0.246,2.569  c-0.245,0.461-0.829,1.288-1.992,1.644l-49.173,15.062c-3.961,1.213-6.188,5.407-4.975,9.367c1.213,3.961,5.409,6.188,9.367,4.975  l49.173-15.061c4.692-1.438,8.545-4.616,10.847-8.95c2.302-4.335,2.778-9.306,1.341-13.999l-14.821-48.392  c-2.967-9.686-13.261-15.153-22.948-12.187L61.95,117.901H47.619c-10.487,0-19.019,8.532-19.019,19.019v121.675  c0,10.488,8.532,19.02,19.019,19.02h5.267v202.508c0,17.576,14.299,31.875,31.875,31.875h39.515c4.143,0,7.5-3.358,7.5-7.5  s-3.357-7.5-7.5-7.5H84.76c-9.305,0-16.875-7.57-16.875-16.875V277.616h95.078c0.005,0,0.01,0,0.016,0H267.04  c0.003,0,0.007,0,0.01,0c0.003,0,0.007,0,0.01,0h79.437c0.003,0,0.007,0,0.01,0c0.003,0,0.007,0,0.01,0h102.905v90.767  c0,4.142,3.357,7.5,7.5,7.5c4.142,0,7.5-3.358,7.5-7.5v-90.767h0.603c10.132,0,18.374-8.242,18.374-18.373v-50.61  C483.4,198.5,475.158,190.258,465.026,190.258z M387.199,33.971l-38.045,71.639l-55.69,17.057l38.045-71.64L387.199,33.971z   M311.226,57.24l-38.046,71.64l-85.3,26.126l38.045-71.639L311.226,57.24z M149.95,106.636l55.691-17.057l-38.045,71.639  l-22.665,6.942l-12.344-28.83L149.95,106.636z M129.667,112.849l-5.546,10.443c-3.031-2.95-6.998-4.839-11.312-5.28L129.667,112.849  z M166.319,260.809c-0.358,0.543-1.4,1.803-3.349,1.806h-0.006c-0.003,0-0.006,0-0.01,0H47.619c-2.217,0-4.02-1.803-4.02-4.02  V136.92c0-2.216,1.803-4.02,4.02-4.02h15.428c0.008,0,0.016,0.002,0.024,0.002c0.009,0,0.018-0.002,0.026-0.002h47.768  c1.61,0,3.062,0.957,3.695,2.438l2.791,6.518c0,0.001,0.001,0.002,0.001,0.003l25.17,58.784c0.01,0.025,0.021,0.05,0.032,0.075  l23.779,55.537c0.007,0.017,0.015,0.035,0.022,0.052l0.303,0.707C167.427,258.809,166.677,260.266,166.319,260.809z   M160.816,205.258h50.059l-35.051,35.051L160.816,205.258z M263.944,262.615h-82.385c0.499-2.3,0.564-4.679,0.189-7.017  l50.341-50.34h89.212L263.944,262.615z M343.401,262.615h-58.243l57.357-57.357h58.243L343.401,262.615z M468.4,259.242  c0,1.86-1.514,3.373-3.374,3.373H364.615l57.357-57.357h43.054c1.86,0,3.374,1.513,3.374,3.374V259.242z" data-original="#000000" class="" style="fill:#310D41" data-old_color="#5D336F"/></g> </svg>
