<?xml version="1.0"?>
<svg xmlns="http://www.w3.org/2000/svg" xmlns:xlink="http://www.w3.org/1999/xlink" version="1.1" id="Capa_1" x="0px" y="0px" viewBox="0 0 512.002 512.002" style="enable-background:new 0 0 512.002 512.002;" xml:space="preserve" width="512px" height="512px" class=""><g><polygon style="fill:#9577A2" points="277.747,412.507 326.255,326.256 326.255,326.256 279.033,232.968 185.746,185.746   185.746,185.746 99.493,234.254 45.237,326.256 45.236,326.256 185.746,466.764 185.746,466.764 " data-original="#D4D2D3" class="active-path" data-old_color="#D4D2D3"/><polygon style="fill:#754F85" points="466.764,185.746 326.255,45.237 222.049,111.698 185.746,185.746 326.255,326.256   400.303,289.952 " data-original="#EFEDEE" class="" data-old_color="#EFEDEE"/><polygon style="fill:#5D336F" points="213.915,200.005 185.746,185.747 185.746,185.747 99.493,234.253 45.237,326.256   45.236,326.256 66.451,347.469 " data-original="#BAB8B9" class="" data-old_color="#BAB8B9"/><polygon style="fill:#9577A2" points="326.255,45.237 222.049,111.698 185.746,185.747 206.96,206.961 347.469,66.452 " data-original="#D4D2D3" class="active-path" data-old_color="#D4D2D3"/><rect x="140.184" y="-31.84" transform="matrix(0.7071 0.7071 -0.7071 0.7071 166.8709 -69.1232)" style="fill:#491F5B" width="53.381" height="397.419" data-original="#455058" class="" data-old_color="#455058"/><polygon style="fill:#5D336F" points="326.255,326.256 326.255,326.256 311.996,298.087 164.532,445.551 185.746,466.764   185.746,466.764 277.747,412.508 " data-original="#BAB8B9" class="" data-old_color="#BAB8B9"/><polygon style="fill:#9577A2" points="445.55,164.532 305.041,305.042 326.255,326.256 400.303,289.952 466.764,185.747 " data-original="#D4D2D3" class="active-path" data-old_color="#D4D2D3"/><rect x="318.444" y="146.418" transform="matrix(-0.7071 -0.7071 0.7071 -0.7071 345.14 833.2163)" style="fill:#491F5B" width="53.381" height="397.419" data-original="#455058" class="" data-old_color="#455058"/><path d="M47.24,305.068l15.277-15.276c0.907-0.907,0.907-2.378,0-3.286L47.24,271.229c-0.907-0.907-2.378-0.907-3.286,0  l-15.277,15.277c-0.907,0.907-0.907,2.378,0,3.286l15.277,15.276C44.861,305.975,46.332,305.975,47.24,305.068z" data-original="#000000" class="" style="fill:#310D41" data-old_color="#000000"/><path d="M70.906,278.116c0.907,0.907,2.379,0.907,3.286,0l15.277-15.277c0.907-0.907,0.907-2.378,0-3.286l-15.277-15.277  c-0.907-0.907-2.378-0.907-3.286,0L55.63,259.552c-0.907,0.907-0.907,2.378,0,3.286L70.906,278.116z" data-original="#000000" class="" style="fill:#310D41" data-old_color="#000000"/><path d="M97.858,251.163c0.907,0.907,2.378,0.907,3.286,0l15.277-15.277c0.907-0.907,0.907-2.378,0-3.286l-15.277-15.277  c-0.907-0.907-2.378-0.907-3.286,0L82.581,232.6c-0.907,0.907-0.907,2.378,0,3.286L97.858,251.163z" data-original="#000000" class="" style="fill:#310D41" data-old_color="#000000"/><path d="M124.811,224.211c0.907,0.907,2.378,0.907,3.286,0l15.277-15.277c0.907-0.907,0.907-2.378,0-3.286l-15.277-15.277  c-0.907-0.907-2.378-0.907-3.286,0l-15.277,15.277c-0.907,0.907-0.907,2.378,0,3.286L124.811,224.211z" data-original="#000000" class="" style="fill:#310D41" data-old_color="#000000"/><path d="M151.763,197.259c0.907,0.907,2.378,0.907,3.286,0l15.277-15.277c0.907-0.907,0.907-2.378,0-3.286l-15.277-15.277  c-0.907-0.908-2.378-0.908-3.286,0l-15.277,15.277c-0.907,0.907-0.907,2.378,0,3.286L151.763,197.259z" data-original="#000000" class="" style="fill:#310D41" data-old_color="#000000"/><path d="M178.715,170.307c0.907,0.907,2.379,0.907,3.286,0l15.277-15.277c0.907-0.908,0.907-2.378,0-3.286l-15.277-15.277  c-0.907-0.908-2.378-0.908-3.286,0l-15.277,15.277c-0.907,0.907-0.907,2.378,0,3.286L178.715,170.307z" data-original="#000000" class="" style="fill:#310D41" data-old_color="#000000"/><path d="M205.667,143.355c0.907,0.907,2.378,0.907,3.286,0l15.277-15.277c0.907-0.908,0.907-2.378,0-3.286l-15.277-15.277  c-0.907-0.908-2.378-0.908-3.286,0l-15.277,15.277c-0.907,0.908-0.907,2.378,0,3.286L205.667,143.355z" data-original="#000000" class="" style="fill:#310D41" data-old_color="#000000"/><path d="M232.618,116.403c0.907,0.908,2.378,0.908,3.286,0l15.277-15.277c0.907-0.908,0.907-2.378,0-3.286l-15.276-15.277  c-0.907-0.907-2.378-0.907-3.286,0L217.342,97.84c-0.907,0.908-0.907,2.378,0,3.286L232.618,116.403z" data-original="#000000" class="" style="fill:#310D41" data-old_color="#000000"/><path d="M259.571,89.451c0.907,0.908,2.378,0.908,3.286,0l15.277-15.277c0.907-0.908,0.907-2.379,0-3.286l-15.277-15.277  c-0.907-0.907-2.378-0.907-3.286,0l-15.277,15.277c-0.907,0.908-0.907,2.378,0,3.286L259.571,89.451z" data-original="#000000" class="" style="fill:#310D41" data-old_color="#000000"/><path d="M286.523,62.499c0.907,0.907,2.378,0.908,3.286,0l15.276-15.277c0.907-0.907,0.907-2.378,0-3.286L289.809,28.66  c-0.907-0.907-2.378-0.907-3.286,0l-15.277,15.277c-0.907,0.907-0.907,2.378,0,3.286L286.523,62.499z" data-original="#000000" class="" style="fill:#310D41" data-old_color="#000000"/><path d="M225.493,449.482c-0.907-0.908-2.378-0.908-3.286,0l-15.277,15.276c-0.907,0.908-0.907,2.378,0,3.286l15.277,15.277  c0.907,0.907,2.379,0.907,3.286,0l15.277-15.277c0.907-0.908,0.907-2.378,0-3.286L225.493,449.482z" data-original="#000000" class="" style="fill:#310D41" data-old_color="#000000"/><path d="M252.446,422.53c-0.907-0.907-2.378-0.907-3.286,0l-15.277,15.277c-0.907,0.908-0.907,2.378,0,3.286l15.277,15.276  c0.907,0.908,2.378,0.908,3.286,0l15.277-15.276c0.907-0.908,0.907-2.378,0-3.286L252.446,422.53z" data-original="#000000" class="" style="fill:#310D41" data-old_color="#000000"/><path d="M279.398,395.578c-0.907-0.907-2.378-0.907-3.286,0l-15.277,15.277c-0.907,0.907-0.907,2.378,0,3.286l15.277,15.277  c0.907,0.908,2.378,0.908,3.286,0l15.277-15.277c0.907-0.907,0.907-2.378,0-3.286L279.398,395.578z" data-original="#000000" class="" style="fill:#310D41" data-old_color="#000000"/><path d="M306.35,368.625c-0.907-0.907-2.378-0.907-3.286,0l-15.277,15.276c-0.907,0.907-0.907,2.378,0,3.286l15.277,15.277  c0.907,0.908,2.378,0.908,3.286,0l15.276-15.277c0.907-0.907,0.907-2.378,0-3.286L306.35,368.625z" data-original="#000000" class="" style="fill:#310D41" data-old_color="#000000"/><path d="M333.302,341.673c-0.907-0.907-2.379-0.907-3.286,0l-15.276,15.277c-0.907,0.907-0.907,2.378,0,3.286l15.276,15.277  c0.907,0.907,2.378,0.907,3.286,0l15.277-15.277c0.907-0.907,0.907-2.378,0-3.286L333.302,341.673z" data-original="#000000" class="" style="fill:#310D41" data-old_color="#000000"/><path d="M360.255,314.721c-0.907-0.907-2.378-0.907-3.286,0l-15.277,15.277c-0.907,0.907-0.907,2.378,0,3.286l15.277,15.277  c0.907,0.907,2.378,0.907,3.286,0l15.277-15.277c0.907-0.907,0.907-2.378,0-3.286L360.255,314.721z" data-original="#000000" class="" style="fill:#310D41" data-old_color="#000000"/><path d="M387.207,287.769c-0.907-0.907-2.378-0.907-3.286,0l-15.276,15.276c-0.907,0.907-0.907,2.378,0,3.286l15.276,15.276  c0.907,0.907,2.378,0.907,3.286,0l15.276-15.276c0.907-0.907,0.907-2.378,0-3.286L387.207,287.769z" data-original="#000000" class="" style="fill:#310D41" data-old_color="#000000"/><path d="M414.159,260.817c-0.907-0.907-2.378-0.907-3.286,0l-15.277,15.277c-0.907,0.907-0.907,2.378,0,3.286l15.277,15.277  c0.907,0.907,2.378,0.907,3.286,0l15.277-15.277c0.907-0.907,0.907-2.378,0-3.286L414.159,260.817z" data-original="#000000" class="" style="fill:#310D41" data-old_color="#000000"/><path d="M441.11,233.865c-0.907-0.907-2.378-0.908-3.286,0l-15.277,15.277c-0.907,0.907-0.907,2.378,0,3.286l15.277,15.277  c0.907,0.907,2.378,0.907,3.286,0l15.276-15.277c0.907-0.907,0.907-2.378,0-3.286L441.11,233.865z" data-original="#000000" class="" style="fill:#310D41" data-old_color="#000000"/><path d="M464.777,206.913l-15.276,15.277c-0.907,0.908-0.907,2.379,0,3.286l15.276,15.277c0.907,0.907,2.378,0.907,3.286,0  l15.277-15.277c0.907-0.907,0.907-2.378,0-3.286l-15.277-15.277C467.155,206.006,465.684,206.006,464.777,206.913z" data-original="#000000" class="" style="fill:#310D41" data-old_color="#000000"/><path d="M132.555,424.163c2.928,2.929,7.677,2.929,10.606,0c2.929-2.929,2.929-7.677,0-10.606l-87.31-87.312l129.901-129.901  l129.902,129.901L185.754,456.147l-21.378-21.378c-2.929-2.929-7.678-2.929-10.606,0c-2.929,2.929-2.929,7.678,0,10.606  c0,0,64.426,64.425,64.427,64.426c2.908,2.907,7.692,2.913,10.606-0.001c0,0,280.362-280.362,281.017-281.017  c2.91-2.91,2.905-7.705,0.001-10.608L377.517,85.871c-2.929-2.929-7.678-2.929-10.606,0c-2.929,2.929-2.929,7.678,0,10.606  l89.256,89.256L326.264,315.638L196.36,185.736L326.264,55.834l19.433,19.433c2.929,2.929,7.678,2.929,10.606,0  c2.929-2.929,2.929-7.678,0-10.606c0,0-62.443-62.442-62.48-62.48c-2.885-2.885-7.727-2.881-10.606,0L2.197,283.197  c-2.929,2.929-2.929,7.678,0,10.606L132.555,424.163z M223.498,493.892l-27.138-27.138l270.411-270.411l27.138,27.138  L223.498,493.892z M288.518,18.088l27.138,27.138L99.707,261.175l-54.462,54.462L18.107,288.5L288.518,18.088z" data-original="#000000" class="" style="fill:#310D41" data-old_color="#000000"/></g> </svg>
