<?xml version="1.0"?>
<svg xmlns="http://www.w3.org/2000/svg" xmlns:xlink="http://www.w3.org/1999/xlink" version="1.1" id="Capa_1" x="0px" y="0px" viewBox="0 0 487.622 487.622" style="enable-background:new 0 0 487.622 487.622;" xml:space="preserve" width="512px" height="512px" class=""><g><g>
	<g>
		<circle style="fill:#080008" cx="243.811" cy="243.811" r="243.811" data-original="#C4E15E" class="active-path" data-old_color="#020102"/>
		<path style="fill:#080008" d="M135.393,221.963l80.996-26.999l121.494,1.5l2.722-44.58l142.747,137.49    c-0.261,1.381-0.532,2.758-0.807,4.134c3.324-16.046,5.076-32.666,5.076-49.697C487.621,109.158,378.461,0,243.81,0    S0,109.158,0,243.811c0,134.65,109.16,243.811,243.811,243.811c15.127,0,29.928-1.389,44.293-4.025L119.528,321.124    L135.393,221.963z" data-original="#C4E15E" class="active-path" data-old_color="#020102"/>
		<path style="opacity: 0.37;fill:#9577A2" d="M482.545,293.508c0.274-1.376,0.546-2.753,0.807-4.134    l-142.747-137.49l-2.722,44.58l-121.494-1.5l-80.996,26.999l-15.865,99.162l168.576,162.472    C385.433,465.731,462.545,390.075,482.545,293.508z" data-original="#B5D24F" class="" data-old_color="opacity: 0.37#9577A2"/>
		<path style="fill:#F3F3F3" d="M308.301,121.844l-18.267,19.614l37.467,34.828H199.913c-52.243,0-94.746,42.503-94.746,94.746    s42.503,94.746,94.746,94.746v-29c-36.253,0-65.746-29.494-65.746-65.746s29.493-65.746,65.746-65.746h127.619l-37.498,34.847    l18.268,19.614l74.154-68.943L308.301,121.844z" data-original="#FFFFFF" class="" data-old_color="#F1F0F2"/>
	</g>
</g></g> </svg>
